<?xml version="1.0" standalone="no"?>
<!DOCTYPE svg PUBLIC "-//W3C//DTD SVG 20010904//EN"
 "http://www.w3.org/TR/2001/REC-SVG-20010904/DTD/svg10.dtd">
<svg version="1.0" xmlns="http://www.w3.org/2000/svg"
 width="50.000000pt" height="50.000000pt" viewBox="0 0 50.000000 50.000000"
 preserveAspectRatio="xMidYMid meet">
<metadata>
Created by potrace 1.10, written by Peter Selinger 2001-2011
</metadata>
<g transform="translate(0.000000,50.000000) scale(0.100000,-0.100000)"
fill="#135846" stroke="none">
<path d="M232 480 c-7 -11 -19 -20 -28 -20 -14 0 -15 -2 -3 -17 8 -9 13 -24
11 -33 -2 -14 5 -17 38 -17 33 0 40 3 38 17 -2 9 3 24 11 33 12 15 11 17 -3
17 -9 0 -21 9 -28 20 -7 11 -15 20 -18 20 -3 0 -11 -9 -18 -20z"/>
<path d="M130 430 c-13 -8 -1 -42 15 -42 8 0 25 22 25 33 0 12 -26 17 -40 9z"/>
<path d="M341 431 c-6 -4 -9 -15 -5 -24 5 -13 10 -14 25 -6 10 5 19 14 19 18
0 13 -25 20 -39 12z"/>
<path d="M53 385 c-6 -18 1 -28 22 -31 18 -3 29 27 13 38 -19 12 -28 10 -35
-7z"/>
<path d="M412 392 c-17 -12 -4 -44 17 -40 17 4 22 39 6 45 -5 1 -16 -1 -23 -5z"/>
<path d="M152 338 c-7 -9 -8 -70 -5 -175 6 -163 6 -163 29 -163 22 0 24 4 24
55 l0 55 50 0 50 0 0 -55 c0 -51 2 -55 24 -55 23 0 23 0 29 163 3 105 2 166
-5 175 -7 8 -40 12 -98 12 -58 0 -91 -4 -98 -12z m158 -78 c0 -6 -27 -10 -60
-10 -33 0 -60 4 -60 10 0 6 27 10 60 10 33 0 60 -4 60 -10z m-20 -80 c0 -5
-18 -10 -40 -10 -22 0 -40 5 -40 10 0 6 18 10 40 10 22 0 40 -4 40 -10z"/>
<path d="M46 214 c-3 -9 -6 -56 -6 -104 0 -95 8 -110 59 -110 23 0 21 -12 25
168 l2 62 -37 0 c-24 0 -39 -5 -43 -16z m54 -85 c0 -17 -4 -28 -10 -24 -5 3
-10 17 -10 31 0 13 5 24 10 24 6 0 10 -14 10 -31z"/>
<path d="M376 177 c1 -28 2 -80 3 -114 1 -57 3 -63 22 -63 51 0 59 15 59 110
0 112 -3 120 -49 120 l-36 0 1 -53z m44 -41 c0 -14 -4 -28 -10 -31 -6 -4 -10
7 -10 24 0 17 5 31 10 31 6 0 10 -11 10 -24z"/>
<path d="M222 48 c3 -38 6 -43 28 -43 22 0 25 5 28 43 3 41 2 42 -28 42 -30 0
-31 -1 -28 -42z"/>
</g>
</svg>
